<?xml version="1.0" encoding="utf-8"?>
<svg version="1.1" id="gear" x="0px" y="0px" width="800px" height="800px" viewBox="0 0 256 256" xmlns="http://www.w3.org/2000/svg">
  <defs/>
  <style type="text/css">

	.st0{fill:#6d9a00;}
	.st1{fill:#D1D1D1;}

</style>
  <path class="st1" d="M120.502,243.45c-7.057,0-12.089-3.771-14.169-10.614c-1.694-5.572-3.675-11.136-5.488-16.045&#10;&#9;c-5.033-2.337-9.632-4.373-13.972-6.186c-4.677,2.092-9.771,4.521-15.837,7.556c-2.135,1.067-4.202,1.588-6.317,1.588&#10;&#9;c-3.589,0-6.82-1.467-9.604-4.36c-4.43-4.604-9.104-9.281-14.287-14.297c-4.448-4.31-5.426-9.978-2.688-15.554&#10;&#9;c1.102-2.242,2.145-4.495,3.249-6.881c1.337-2.888,2.713-5.86,4.208-8.822c-2.522-5.034-4.6-9.745-6.319-14.332&#10;&#9;c-2.427-0.81-4.823-1.636-7.154-2.44c-3.288-1.136-6.688-2.31-10.001-3.367c-6.163-1.965-9.636-6.771-9.523-13.18&#10;&#9;c0.124-7.103,0.123-13.59-0.005-19.833c-0.134-6.536,3.387-11.449,9.659-13.479c6.262-2.027,11.917-3.97,17.224-5.915&#10;&#9;c2.284-4.716,4.417-9.365,6.36-13.856c-2.061-4.599-4.436-9.577-7.541-15.818c-2.843-5.714-1.837-11.523,2.758-15.938&#10;&#9;C46.52,46.429,50.95,41.993,55,37.711c3.443-3.639,7.163-4.403,9.677-4.403c2.871,0,5.152,0.971,6.618,1.701&#10;&#9;c4.749,2.363,10.278,5.081,15.908,7.647c4.799-1.814,9.421-3.674,13.775-5.543c2.271-5.772,4.281-11.491,5.816-15.945&#10;&#9;c2.024-5.87,6.725-9.237,12.897-9.237l0.31,0.003c3.223,0.055,6.583,0.083,9.99,0.083c3.291,0,6.745-0.026,10.269-0.077&#10;&#9;c0.049,0,0.194-0.001,0.243-0.001c6.031,0,10.636,3.337,12.63,9.156c1.055,3.074,2.201,6.225,3.311,9.271&#10;&#9;c0.795,2.187,1.613,4.432,2.412,6.691c2.826,0.999,5.541,2.074,8.184,3.121c2.01,0.797,3.929,1.558,5.841,2.265&#10;&#9;c4.817-2.154,9.992-4.623,15.752-7.515c2.28-1.143,4.438-1.698,6.609-1.698c2.517,0,6.241,0.768,9.702,4.428&#10;&#9;c2.16,2.287,4.453,4.602,6.668,6.84c2.535,2.56,5.156,5.208,7.707,7.933c3.396,3.634,4.416,9.831,2.375,14.418&#10;&#9;c-1.459,3.273-2.996,6.502-4.481,9.625c-1.196,2.517-2.344,4.923-3.444,7.339c0.735,1.95,1.518,3.902,2.334,5.944&#10;&#9;c1.01,2.531,2.051,5.135,3.029,7.801c2.512,0.871,4.971,1.789,7.365,2.682c2.755,1.028,5.355,1.999,7.988,2.889&#10;&#9;c6.246,2.11,9.748,7.138,9.604,13.795c-0.169,7.626-0.163,13.473,0.019,18.958c0.129,3.931-0.979,10.978-9.853,14.025&#10;&#9;c-5.563,1.92-10.539,3.747-15.132,5.561c-1.771,4.445-3.51,9.075-5.18,13.81c1.066,2.322,2.188,4.671,3.274,6.955&#10;&#9;c1.501,3.149,3.054,6.406,4.526,9.703c1.855,4.139,1.73,10.467-2.109,14.534c-1.955,2.072-4.064,4.261-6.449,6.688&#10;&#9;c-0.813,0.83-1.635,1.658-2.453,2.486c-2.225,2.248-4.323,4.373-6.383,6.566c-1.941,2.07-4.404,3.368-7.123,3.753&#10;&#9;c-0.545,0.078-1.113,0.119-1.68,0.119c-3.387,0-5.902-1.405-7.254-2.16c-0.12-0.065-0.238-0.136-0.355-0.194&#10;&#9;c-0.918-0.447-1.864-0.879-2.813-1.312c-0.58-0.265-1.161-0.526-1.738-0.798c-2.637-1.227-5.269-2.457-7.888-3.721&#10;&#9;c-0.771-0.371-1.542-0.746-2.313-1.125c-4.754,2.231-9.517,4.287-14.189,6.129c-0.671,1.979-1.355,3.938-2.025,5.85&#10;&#9;c-1.308,3.725-2.539,7.24-3.646,10.813c-1.938,6.263-6.806,9.853-13.354,9.854l-0.438-0.005c-2.704-0.056-6.269-0.115-9.788-0.115&#10;&#9;c-3.08,0-5.842,0.045-8.444,0.14C121.024,243.445,120.759,243.45,120.502,243.45z"/>
  <path class="st0" d="M195.82,210.063c-1.146,0.164-2.348-0.763-3.484-1.314c-1.563-0.764-3.158-1.462-4.734-2.195&#10;&#9;c-2.595-1.205-5.186-2.418-7.763-3.658c-1.417-0.685-2.831-1.375-4.237-2.08c-1.968-0.986-3.306-0.686-5.166,0.203&#10;&#9;c-5.42,2.586-10.939,4.983-16.541,7.145c-1.967,0.76-3.1,1.723-3.75,3.688c-2.078,6.271-4.424,12.457-6.375,18.767&#10;&#9;c-0.709,2.295-1.832,2.849-4.035,2.804c-6.262-0.124-12.534-0.195-18.792,0.026c-2.833,0.102-4.19-0.716-5.041-3.515&#10;&#9;c-1.92-6.315-4.158-12.543-6.466-18.729c-0.411-1.104-1.624-2.188-2.735-2.709c-5.756-2.697-11.562-5.3-17.441-7.72&#10;&#9;c-1.314-0.539-3.216-0.726-4.457-0.184c-6.159,2.697-12.223,5.622-18.239,8.631c-1.796,0.897-2.866,0.67-4.243-0.763&#10;&#9;c-4.754-4.94-9.613-9.783-14.539-14.55c-1.334-1.293-1.469-2.322-0.666-3.959c2.758-5.613,5.207-11.383,8.085-16.932&#10;&#9;c1.313-2.533,0.983-4.408-0.252-6.845c-2.554-5.034-4.889-10.216-6.802-15.521c-0.84-2.329-2.021-3.426-4.199-4.137&#10;&#9;c-6.281-2.056-12.488-4.334-18.782-6.346c-1.899-0.604-2.604-1.463-2.568-3.479c0.118-6.736,0.132-13.479-0.006-20.213&#10;&#9;c-0.044-2.168,0.733-3.111,2.741-3.761c6.51-2.108,12.989-4.324,19.401-6.71c1.215-0.451,2.441-1.693,3.024-2.883&#10;&#9;c2.793-5.71,5.458-11.489,7.95-17.336c0.544-1.278,0.704-3.164,0.168-4.385c-2.704-6.158-5.63-12.22-8.627-18.243&#10;&#9;c-0.883-1.774-0.723-2.874,0.733-4.272c4.86-4.666,9.653-9.411,14.282-14.305c1.564-1.654,2.781-1.514,4.571-0.623&#10;&#9;c6.022,2.997,12.071,5.948,18.21,8.695c1.161,0.521,2.918,0.394,4.163-0.07c5.737-2.141,11.432-4.416,17.047-6.859&#10;&#9;c1.308-0.569,2.758-1.778,3.269-3.045c2.421-6.014,4.61-12.124,6.724-18.254c0.65-1.885,1.604-2.528,3.586-2.495&#10;&#9;c6.855,0.117,13.716,0.105,20.57,0.006c1.871-0.026,2.682,0.685,3.27,2.399c2.064,6.024,4.348,11.975,6.434,17.993&#10;&#9;c0.677,1.947,1.73,2.908,3.799,3.598c5.693,1.901,11.197,4.361,16.853,6.383c1.339,0.478,3.195,0.587,4.447,0.037&#10;&#9;c6.048-2.657,12.009-5.52,17.913-8.484c1.857-0.932,3.043-0.94,4.559,0.663c4.709,4.98,9.657,9.733,14.342,14.737&#10;&#9;c0.688,0.735,0.957,2.579,0.539,3.518c-2.832,6.357-5.986,12.571-8.813,18.931c-0.513,1.147-0.353,2.879,0.104,4.12&#10;&#9;c2.023,5.527,4.396,10.929,6.366,16.474c0.729,2.046,1.563,3.333,3.759,4.061c5.819,1.93,11.504,4.272,17.313,6.236&#10;&#9;c2.182,0.737,2.855,1.861,2.807,4.104c-0.145,6.498-0.193,13.007,0.021,19.504c0.082,2.53-0.924,3.489-3.106,4.239&#10;&#9;c-5.909,2.039-11.786,4.188-17.583,6.523c-1.191,0.479-2.386,1.806-2.879,3.023c-2.385,5.891-4.609,11.85-6.693,17.852&#10;&#9;c-0.396,1.146-0.278,2.766,0.227,3.883c2.764,6.132,5.798,12.142,8.542,18.281c0.444,0.995,0.401,2.897-0.252,3.592&#10;&#9;c-2.08,2.205-4.188,4.382-6.313,6.543c-3.01,3.065-6.059,6.091-8.996,9.225C196.652,209.797,196.24,210.004,195.82,210.063z&#10;&#9; M172.083,126.68c0.065-23.207-18.606-42.196-41.567-42.272c-23.586-0.079-42.52,18.377-42.604,41.532&#10;&#9;c-0.087,23.701,18.489,42.607,41.895,42.64C153.2,168.614,172.018,149.965,172.083,126.68z"/>
  <title>file_type_swagger</title>
  <path d="M 194.212 127.655 C 194.212 176.454 141.373 206.951 99.113 182.549 C 56.845 158.148 56.849 97.147 99.118 72.749 C 123.971 58.404 155.358 62.537 175.645 82.828 C 187.555 94.706 194.24 110.839 194.212 127.655 Z" style="fill: rgb(255, 255, 255);"/>
  <path d="M 184.704 127.655 C 184.704 169.138 139.792 195.056 103.866 174.314 C 67.942 153.574 67.942 101.723 103.872 80.987 C 124.998 68.792 151.676 72.305 168.92 89.553 C 179.04 99.651 184.726 113.362 184.704 127.655 Z" style="fill: rgb(109, 154, 0);"/>
  <path d="M 111.157 127.58 C 111.058 125.094 113.101 123.054 115.584 123.159 C 118.987 123.165 121.108 126.851 119.407 129.794 C 117.703 132.737 113.45 132.732 111.753 129.785 C 111.362 129.114 111.157 128.352 111.157 127.58 Z" style="fill: rgb(255, 255, 255);"/>
  <path d="M 126.424 127.58 C 126.324 125.094 128.366 123.054 130.85 123.159 C 134.254 123.165 136.374 126.851 134.672 129.794 C 132.968 132.737 128.717 132.732 127.017 129.785 C 126.63 129.114 126.424 128.352 126.424 127.58 Z" style="fill: rgb(255, 255, 255);"/>
  <path d="M 141.682 127.58 C 141.582 125.094 143.624 123.054 146.106 123.159 C 149.51 123.165 151.633 126.851 149.928 129.794 C 148.225 132.737 143.973 132.732 142.275 129.785 C 141.885 129.114 141.682 128.352 141.682 127.58 Z" style="fill: rgb(255, 255, 255);"/>
  <path d="M 92.859 131.685 L 92.859 123.771 C 94.216 123.771 95.561 123.554 96.846 123.129 C 97.686 122.661 98.373 121.969 98.835 121.131 C 99.448 120.045 99.836 118.854 99.985 117.616 C 100.196 115.788 100.276 113.949 100.235 112.112 C 100.145 109.127 100.33 106.138 100.792 103.19 C 101.077 101.675 101.775 100.26 102.813 99.115 C 103.77 97.944 105.045 97.079 106.481 96.616 C 108.431 96.145 110.438 95.948 112.44 96.023 L 114.082 96.023 L 114.082 102.529 C 112.598 102.438 111.104 102.576 109.66 102.942 C 109.048 103.181 108.54 103.625 108.216 104.197 C 107.867 105.586 107.712 107.024 107.762 108.457 C 107.762 109.844 107.671 112.469 107.482 116.34 C 107.44 118.134 107.168 119.913 106.674 121.634 C 106.318 122.834 105.755 123.966 105.013 124.98 C 104.134 126.039 103.088 126.959 101.925 127.698 C 103.074 128.381 104.094 129.269 104.922 130.32 C 105.742 131.402 106.349 132.633 106.707 133.94 C 107.186 135.815 107.458 137.739 107.514 139.678 C 107.658 143.327 107.731 145.659 107.731 146.67 C 107.681 148.09 107.849 149.519 108.229 150.891 C 108.576 151.478 109.109 151.937 109.738 152.193 C 111.157 152.588 112.631 152.738 114.096 152.647 L 114.096 159.375 L 112.454 159.375 C 110.469 159.42 108.491 159.126 106.603 158.505 C 105.162 158.077 103.862 157.273 102.826 156.184 C 101.779 155.036 101.063 153.629 100.761 152.107 C 100.338 149.585 100.164 147.025 100.23 144.473 C 100.338 141.833 100.173 139.192 99.734 136.59 C 99.457 135.145 98.736 133.827 97.668 132.812 C 96.191 132.02 94.534 131.633 92.859 131.685 Z" style="fill: rgb(255, 255, 255);"/>
  <path d="M 163.802 132.832 C 162.74 133.844 162.018 135.164 161.738 136.609 C 161.304 139.212 161.137 141.85 161.242 144.493 C 161.31 147.039 161.128 149.59 160.703 152.107 C 160.398 153.629 159.688 155.036 158.637 156.184 C 157.609 157.288 156.31 158.097 154.864 158.543 C 152.98 159.162 151.003 159.456 149.013 159.41 L 147.372 159.41 L 147.372 152.694 C 148.84 152.786 150.313 152.637 151.731 152.242 C 152.365 151.985 152.896 151.529 153.238 150.938 C 153.623 149.567 153.791 148.142 153.737 146.719 C 153.737 145.71 153.809 143.38 153.953 139.727 C 154.017 137.795 154.29 135.869 154.769 133.997 C 155.13 132.688 155.737 131.455 156.553 130.373 C 157.387 129.322 158.399 128.434 159.552 127.751 C 158.386 127.014 157.346 126.093 156.463 125.034 C 155.725 124.02 155.163 122.886 154.801 121.687 C 154.307 119.967 154.04 118.187 153.995 116.396 C 153.809 112.524 153.714 109.897 153.714 108.512 C 153.766 107.076 153.614 105.641 153.262 104.251 C 152.941 103.681 152.43 103.237 151.816 102.994 C 150.372 102.63 148.883 102.495 147.393 102.585 L 147.393 96.032 L 149.037 96.032 C 151.044 95.957 153.047 96.155 154.995 96.626 C 156.435 97.089 157.712 97.952 158.663 99.124 C 159.7 100.271 160.402 101.684 160.684 103.2 C 161.149 106.147 161.336 109.136 161.242 112.119 C 161.205 113.958 161.286 115.796 161.489 117.626 C 161.64 118.862 162.033 120.054 162.64 121.141 C 163.101 121.977 163.794 122.67 164.628 123.136 C 165.919 123.568 167.269 123.785 168.627 123.788 L 168.627 131.685 C 166.946 131.637 165.285 132.031 163.802 132.832 Z" style="fill: rgb(255, 255, 255);"/>
</svg>